<svg width="570" height="401" viewBox="0 0 570 401" fill="none" xmlns="http://www.w3.org/2000/svg">
<rect width="87.0502" height="87.0502" transform="matrix(0.817656 0.575706 -0.817657 0.575707 285.291 0)" fill="url(#paint0_linear_152_33)" fill-opacity="0.1"/>
<rect width="87.0502" height="87.0502" transform="matrix(0.817656 0.575706 0.817657 -0.575707 285.291 100.231)" fill="url(#paint1_linear_152_33)" fill-opacity="0.1"/>
<rect width="87.0502" height="87.0502" transform="matrix(0.817656 0.575706 -0.817657 0.575707 427.646 100.231)" fill="url(#paint2_linear_152_33)" fill-opacity="0.1"/>
<rect width="87.0502" height="87.0502" transform="matrix(0.817656 0.575706 0.817657 -0.575707 427.646 200.462)" fill="url(#paint3_linear_152_33)" fill-opacity="0.1"/>
<rect width="87.0502" height="87.0502" transform="matrix(0.817656 0.575706 -0.817657 0.575707 214.114 50.1154)" fill="url(#paint4_linear_152_33)" fill-opacity="0.1"/>
<rect width="87.0502" height="87.0502" transform="matrix(0.817656 0.575706 0.817657 -0.575707 214.114 150.345)" fill="url(#paint5_linear_152_33)" fill-opacity="0.1"/>
<rect width="87.0502" height="87.0502" transform="matrix(0.817656 0.575706 -0.817657 0.575707 356.468 150.345)" fill="url(#paint6_linear_152_33)" fill-opacity="0.1"/>
<rect width="87.0502" height="87.0502" transform="matrix(0.817656 0.575706 0.817657 -0.575707 356.468 250.578)" fill="url(#paint7_linear_152_33)" fill-opacity="0.1"/>
<rect width="87.0502" height="87.0502" transform="matrix(0.817656 0.575706 -0.817657 0.575707 142.937 100.231)" fill="url(#paint8_linear_152_33)" fill-opacity="0.1"/>
<rect width="87.0502" height="87.0502" transform="matrix(0.817656 0.575706 0.817657 -0.575707 142.937 200.462)" fill="url(#paint9_linear_152_33)" fill-opacity="0.1"/>
<rect width="87.0502" height="87.0502" transform="matrix(0.817656 0.575706 -0.817657 0.575707 285.291 200.462)" fill="url(#paint10_linear_152_33)" fill-opacity="0.1"/>
<rect width="87.0502" height="87.0502" transform="matrix(0.817656 0.575706 0.817657 -0.575707 285.291 300.691)" fill="url(#paint11_linear_152_33)" fill-opacity="0.1"/>
<rect width="87.0502" height="87.0502" transform="matrix(0.817656 0.575706 -0.817657 0.575707 71.7595 150.345)" fill="url(#paint12_linear_152_33)" fill-opacity="0.1"/>
<rect width="87.0502" height="87.0502" transform="matrix(0.817656 0.575706 0.817657 -0.575707 71.7595 250.578)" fill="url(#paint13_linear_152_33)" fill-opacity="0.1"/>
<rect width="87.0502" height="87.0502" transform="matrix(0.817656 0.575706 -0.817657 0.575707 214.114 250.578)" fill="url(#paint14_linear_152_33)" fill-opacity="0.1"/>
<rect width="87.0502" height="87.0502" transform="matrix(0.817656 0.575706 0.817657 -0.575707 214.114 350.808)" fill="url(#paint15_linear_152_33)" fill-opacity="0.1"/>
<defs>
<linearGradient id="paint0_linear_152_33" x1="43.5251" y1="0" x2="43.5251" y2="87.0502" gradientUnits="userSpaceOnUse">
<stop stop-color="#0586FD" stop-opacity="0.94"/>
<stop offset="1" stop-color="#0586FD" stop-opacity="0.19"/>
</linearGradient>
<linearGradient id="paint1_linear_152_33" x1="43.5251" y1="0" x2="43.5251" y2="87.0502" gradientUnits="userSpaceOnUse">
<stop stop-color="#0586FD" stop-opacity="0.94"/>
<stop offset="1" stop-color="#0586FD" stop-opacity="0.19"/>
</linearGradient>
<linearGradient id="paint2_linear_152_33" x1="43.5251" y1="0" x2="43.5251" y2="87.0502" gradientUnits="userSpaceOnUse">
<stop stop-color="#0586FD" stop-opacity="0.94"/>
<stop offset="1" stop-color="#0586FD" stop-opacity="0.19"/>
</linearGradient>
<linearGradient id="paint3_linear_152_33" x1="43.5251" y1="0" x2="43.5251" y2="87.0502" gradientUnits="userSpaceOnUse">
<stop stop-color="#0586FD" stop-opacity="0.94"/>
<stop offset="1" stop-color="#0586FD" stop-opacity="0.19"/>
</linearGradient>
<linearGradient id="paint4_linear_152_33" x1="43.5251" y1="0" x2="43.5251" y2="87.0502" gradientUnits="userSpaceOnUse">
<stop stop-color="#0586FD" stop-opacity="0.94"/>
<stop offset="1" stop-color="#0586FD" stop-opacity="0.19"/>
</linearGradient>
<linearGradient id="paint5_linear_152_33" x1="43.5251" y1="0" x2="43.5251" y2="87.0502" gradientUnits="userSpaceOnUse">
<stop stop-color="#0586FD" stop-opacity="0.94"/>
<stop offset="1" stop-color="#0586FD" stop-opacity="0.19"/>
</linearGradient>
<linearGradient id="paint6_linear_152_33" x1="43.5251" y1="0" x2="43.5251" y2="87.0502" gradientUnits="userSpaceOnUse">
<stop stop-color="#0586FD" stop-opacity="0.94"/>
<stop offset="1" stop-color="#0586FD" stop-opacity="0.19"/>
</linearGradient>
<linearGradient id="paint7_linear_152_33" x1="43.5251" y1="0" x2="43.5251" y2="87.0502" gradientUnits="userSpaceOnUse">
<stop stop-color="#0586FD" stop-opacity="0.94"/>
<stop offset="1" stop-color="#0586FD" stop-opacity="0.19"/>
</linearGradient>
<linearGradient id="paint8_linear_152_33" x1="43.5251" y1="0" x2="43.5251" y2="87.0502" gradientUnits="userSpaceOnUse">
<stop stop-color="#0586FD" stop-opacity="0.94"/>
<stop offset="1" stop-color="#0586FD" stop-opacity="0.19"/>
</linearGradient>
<linearGradient id="paint9_linear_152_33" x1="43.5251" y1="0" x2="43.5251" y2="87.0502" gradientUnits="userSpaceOnUse">
<stop stop-color="#0586FD" stop-opacity="0.94"/>
<stop offset="1" stop-color="#0586FD" stop-opacity="0.19"/>
</linearGradient>
<linearGradient id="paint10_linear_152_33" x1="43.5251" y1="0" x2="43.5251" y2="87.0502" gradientUnits="userSpaceOnUse">
<stop stop-color="#0586FD" stop-opacity="0.94"/>
<stop offset="1" stop-color="#0586FD" stop-opacity="0.19"/>
</linearGradient>
<linearGradient id="paint11_linear_152_33" x1="43.5251" y1="0" x2="43.5251" y2="87.0502" gradientUnits="userSpaceOnUse">
<stop stop-color="#0586FD" stop-opacity="0.94"/>
<stop offset="1" stop-color="#0586FD" stop-opacity="0.19"/>
</linearGradient>
<linearGradient id="paint12_linear_152_33" x1="43.5251" y1="0" x2="43.5251" y2="87.0502" gradientUnits="userSpaceOnUse">
<stop stop-color="#0586FD" stop-opacity="0.94"/>
<stop offset="1" stop-color="#0586FD" stop-opacity="0.19"/>
</linearGradient>
<linearGradient id="paint13_linear_152_33" x1="43.5251" y1="0" x2="43.5251" y2="87.0502" gradientUnits="userSpaceOnUse">
<stop stop-color="#0586FD" stop-opacity="0.94"/>
<stop offset="1" stop-color="#0586FD" stop-opacity="0.19"/>
</linearGradient>
<linearGradient id="paint14_linear_152_33" x1="43.5251" y1="0" x2="43.5251" y2="87.0502" gradientUnits="userSpaceOnUse">
<stop stop-color="#0586FD" stop-opacity="0.94"/>
<stop offset="1" stop-color="#0586FD" stop-opacity="0.19"/>
</linearGradient>
<linearGradient id="paint15_linear_152_33" x1="43.5251" y1="0" x2="43.5251" y2="87.0502" gradientUnits="userSpaceOnUse">
<stop stop-color="#0586FD" stop-opacity="0.94"/>
<stop offset="1" stop-color="#0586FD" stop-opacity="0.19"/>
</linearGradient>
</defs>
</svg>
