<svg width="57" height="35" viewBox="0 0 57 35" fill="none" xmlns="http://www.w3.org/2000/svg">
<g clip-path="url(#clip0_152_12)">
<path d="M-0.00762939 1.59247C4.59097 -1.06253 10.4699 0.520037 13.1199 5.10997L22.3849 21.1574C25.0399 25.756 23.4573 31.6349 18.8674 34.2849L-0.00762939 1.59247Z" fill="url(#paint0_linear_152_12)"/>
<path d="M18.6884 1.28767C23.287 -1.36733 29.1659 0.215243 31.8159 4.80518L41.0809 20.8526C43.7359 25.4512 42.1533 31.3301 37.5634 33.9801L18.6884 1.28767Z" fill="url(#paint1_linear_152_12)"/>
<path d="M47.0965 17.9675C42.4979 15.3125 40.929 9.42991 43.579 4.83998C46.234 0.241384 52.1166 -1.32753 56.7065 1.32247L47.0965 17.9675Z" fill="url(#paint2_linear_152_12)"/>
</g>
<defs>
<linearGradient id="paint0_linear_152_12" x1="24.5252" y1="29.7374" x2="0.525189" y2="1.14735" gradientUnits="userSpaceOnUse">
<stop stop-color="#1859FF"/>
<stop offset="1" stop-color="#0586FD"/>
</linearGradient>
<linearGradient id="paint1_linear_152_12" x1="43.2103" y1="29.439" x2="19.2104" y2="0.839049" gradientUnits="userSpaceOnUse">
<stop stop-color="#1859FF"/>
<stop offset="1" stop-color="#0586FD"/>
</linearGradient>
<linearGradient id="paint2_linear_152_12" x1="53.7944" y1="12.3434" x2="45.5044" y2="2.46337" gradientUnits="userSpaceOnUse">
<stop stop-color="#1859FF"/>
<stop offset="1" stop-color="#0586FD"/>
</linearGradient>
<clipPath id="clip0_152_12">
<rect width="56.71" height="34.29" fill="white"/>
</clipPath>
</defs>
</svg>
